# xmcd CD database file
#
# Track frame offsets:
#	150
#	16937
#	40915
#	57581
#	81511
#	100751
#	117553
#	138827
#	158460
#	174148
#	192681
#	216602
#	238799
#	257328
#	274962
#	295705
#	317200
#
# Disc length: 4578 seconds
#
# Revision: 0
# Processed by: cddbd v1.5.1PL2 Copyright (c) Steve Scherf et al.
# Submitted via: CDex 1.51
#
DISCID=f911e011
DTITLE=The Ron Johnson Project - Just Me
DYEAR=2006
DGENRE=Jazz
TTITLE0=Intro
TTITLE1=My Funny Valentine
TTITLE2=Nothing No One
TTITLE3=Practice What You Preach
TTITLE4=Willie
TTITLE5=Next Time
TTITLE6=My Senorita
TTITLE7=Excuse Me Miss
TTITLE8=Video
TTITLE9=Yesterday
TTITLE10=Give Me a Little More
TTITLE11=Thanks Ms. Crawford
TTITLE12=Just For You
TTITLE13=Carousel
TTITLE14=Dance with Me
TTITLE15=Rainmaker
TTITLE16=Just Me (Live in London)
EXTD=YEAR: 2006
EXTT0=
EXTT1=
EXTT2=
EXTT3=
EXTT4=
EXTT5=
EXTT6=
EXTT7=
EXTT8=
EXTT9=
EXTT10=
EXTT11=
EXTT12=
EXTT13=
EXTT14=
EXTT15=
EXTT16=
PLAYORDER=
